<svg id="inProgress" xmlns="http://www.w3.org/2000/svg" viewBox="0 0 125 148">
  <title>Soliguide_RVB_Symbol_WhiteOnBlack</title>
  <g>
    <g>
      <path d="M72.29682,7.56491a4.44467,4.44467,0,0,0-8.716,1.7467l2.60449,12.94348a59.01063,59.01063,0,0,1,8.725-1.7018Z" style="fill: #fff"/>
      <path d="M28.47643,8.53567a4.44184,4.44184,0,0,0-6.83157,5.67887l18.951,22.70362a59.5473,59.5473,0,0,1,6.81439-5.69963Z" style="fill: #fff"/>
      <path d="M17.82841,47.68632a4.43721,4.43721,0,1,0-3.49049,8.15914l11.35013,4.836a58.67158,58.67158,0,0,1,3.42184-8.18878Z" style="fill: #fff"/>
      <path d="M3.65849,88.92927a4.4359,4.4359,0,0,0,.78264,8.80292A4.523,4.523,0,0,0,5.234,97.661l19.3613-3.47984a58.80318,58.80318,0,0,1-1.58247-8.73049Z" style="fill: #fff"/>
      <path d="M109.23045,5.7081a4.44422,4.44422,0,0,0-8.5174-2.54126L95.18372,21.62443a58.88973,58.88973,0,0,1,8.49311,2.62258Z" style="fill: #fff"/>
    </g>
    <g>
      <path d="M119.923,102.85791c-5.19669-10.13878-16.62534-15.04722-30.33072-18.2293-14.12811-3.19606-16.60464-5.52131-16.60464-10.027,0-4.79621,4.07757-8.28578,12.818-8.28578a48.16816,48.16816,0,0,1,9.00793.88859L72.9863,45.27636c-.71293.16687-1.41462.34561-2.10038.54129-15.48087,4.41882-23.82245,16.07389-23.82245,29.075,0,19.03827,10.63242,27.906,29.7102,31.8297a59.08326,59.08326,0,0,1,12.21883,3.55776c4.85979,2.20031,6.27982,4.68185,6.27982,7.63268,0,6.25023-5.53484,8.866-14.12811,8.866-10.6024,0-20.119-5.74664-24.74388-8.67756-.7749-.49131-1.42862-.91231-1.90929-1.20455-.36214-.16349-1.01331.6891-1.78482,2.091l-.00138.00042c-2.6516,4.81146-6.82107,16.44153-6.37033,18.69224,5.22863,3.91184,19.434,10.279,35.6871,10.31582.04732,0,.0939.00381.14186.00381,15.598,0,26.33622-4.88091,32.8724-11.82025v-.00042a28.633,28.633,0,0,0,7.90951-19.7189A29.28355,29.28355,0,0,0,119.923,102.85791Z" style="fill: #cecece"/>
      <path d="M119.30253,52.50836c-5.678-4.50565-18.64179-8.57463-34.08011-8.57463-1.9339,0-3.79066.09868-5.58673.27022h-.00011a50.21945,50.21945,0,0,0-6.64907,1.07241s.59706,3.73057,8.27548,11.54325C88.53921,64.224,93.09013,66.905,93.09013,66.905a62.34055,62.34055,0,0,1,8.14284,1.91272,64.7211,64.7211,0,0,1,6.50222,2.38116c1.04409.44557,2.12044.94111,3.26554,1.5129.87008-.10589,3.13143-2.46587,8.03526-16.51057h.00021C119.58944,54.27877,119.76791,52.86541,119.30253,52.50836Z" style="fill: #fff"/>
    </g>
  </g>
</svg>
